<svg width="100" height="100" viewBox="0 0 100 100" fill="none" xmlns="http://www.w3.org/2000/svg">
<g clip-path="url(#clip0_1_2)">
<mask id="mask0_1_2" style="mask-type:alpha" maskUnits="userSpaceOnUse" x="0" y="0" width="100" height="100">
<circle cx="50" cy="50" r="50" fill="url(#paint0_linear_1_2)"/>
</mask>
<g mask="url(#mask0_1_2)">
<mask id="mask1_1_2" style="mask-type:alpha" maskUnits="userSpaceOnUse" x="-2" y="-2" width="103" height="102">
<path d="M100 -0.499996L-3.8147e-06 99.5L100 99.5L100 -0.499996Z" fill="black" stroke="black"/>
</mask>
<g mask="url(#mask1_1_2)">
<circle cx="50" cy="50" r="50" fill="url(#paint1_linear_1_2)"/>
<g filter="url(#filter0_f_1_2)">
<path d="M98.6494 24.2781L15.1867 85.5568L76.2836 2.82148L98.6494 24.2781Z" fill="black" fill-opacity="0.27"/>
</g>
<path d="M53.8801 57.4096L53.7001 59.5696L54.4801 58.4896L72.2401 39.9496H79.7401L61.8001 58.5496L80.7601 83.3296H73.3801L57.5401 62.2696L53.8801 65.8096V83.3296H48.0001V39.9496H53.8801V57.4096Z" fill="white"/>
</g>
<g filter="url(#filter1_d_1_2)">
<mask id="mask2_1_2" style="mask-type:alpha" maskUnits="userSpaceOnUse" x="-1" y="-1" width="103" height="103">
<path d="M0 100L100 0L-8.74228e-06 8.74228e-06L0 100Z" fill="black" stroke="black"/>
</mask>
<g mask="url(#mask2_1_2)">
<circle cx="50" cy="50" r="50" fill="url(#paint2_linear_1_2)"/>
<path d="M16.4591 62.224V17.464H16.5191L39.2591 49.744L36.7991 49.264L59.4791 17.464H59.5991V62.224H53.8391V30.664L54.1991 33.604L37.8191 56.764H37.6991L21.0791 33.604L22.0991 30.904V62.224H16.4591Z" fill="black"/>
</g>
</g>
</g>
</g>
<defs>
<filter id="filter0_f_1_2" x="5.18671" y="-7.17852" width="103.463" height="102.735" filterUnits="userSpaceOnUse" color-interpolation-filters="sRGB">
<feFlood flood-opacity="0" result="BackgroundImageFix"/>
<feBlend mode="normal" in="SourceGraphic" in2="BackgroundImageFix" result="shape"/>
<feGaussianBlur stdDeviation="5" result="effect1_foregroundBlur_1_2"/>
</filter>
<filter id="filter1_d_1_2" x="-6" y="-14" width="136" height="136" filterUnits="userSpaceOnUse" color-interpolation-filters="sRGB">
<feFlood flood-opacity="0" result="BackgroundImageFix"/>
<feColorMatrix in="SourceAlpha" type="matrix" values="0 0 0 0 0 0 0 0 0 0 0 0 0 0 0 0 0 0 127 0" result="hardAlpha"/>
<feOffset dx="12" dy="4"/>
<feGaussianBlur stdDeviation="9"/>
<feComposite in2="hardAlpha" operator="out"/>
<feColorMatrix type="matrix" values="0 0 0 0 0 0 0 0 0 0 0 0 0 0 0 0 0 0 0.45 0"/>
<feBlend mode="normal" in2="BackgroundImageFix" result="effect1_dropShadow_1_2"/>
<feBlend mode="normal" in="SourceGraphic" in2="effect1_dropShadow_1_2" result="shape"/>
</filter>
<linearGradient id="paint0_linear_1_2" x1="79.4469" y1="21.1354" x2="14.9696" y2="85.6891" gradientUnits="userSpaceOnUse">
<stop stop-color="#FFDBF2"/>
<stop offset="0.735577" stop-color="#089292"/>
<stop offset="1" stop-color="#1087A1"/>
</linearGradient>
<linearGradient id="paint1_linear_1_2" x1="68.0351" y1="33.3542" x2="91.7381" y2="89.7194" gradientUnits="userSpaceOnUse">
<stop offset="0.0432556" stop-color="#00FFD5"/>
<stop offset="1" stop-color="#25007C"/>
</linearGradient>
<linearGradient id="paint2_linear_1_2" x1="79.4469" y1="21.1354" x2="14.9696" y2="85.6891" gradientUnits="userSpaceOnUse">
<stop stop-color="#FFDBF2"/>
<stop offset="0.735577" stop-color="#089292"/>
<stop offset="1" stop-color="#1085A0"/>
</linearGradient>
<clipPath id="clip0_1_2">
<rect width="100" height="100" fill="white"/>
</clipPath>
</defs>
</svg>
